<?xml version="1.0" standalone="no"?>
<!DOCTYPE svg PUBLIC "-//W3C//DTD SVG 20010904//EN"
 "http://www.w3.org/TR/2001/REC-SVG-20010904/DTD/svg10.dtd">
<svg version="1.0" xmlns="http://www.w3.org/2000/svg"
 width="512.000000pt" height="512.000000pt" viewBox="0 0 512.000000 512.000000"
 preserveAspectRatio="xMidYMid meet">

<g transform="translate(0.000000,512.000000) scale(0.100000,-0.100000)"
fill="#000000" stroke="none">
<path d="M2378 5109 c-419 -41 -804 -224 -1109 -528 -278 -279 -443 -601 -515
-1003 -13 -76 -17 -189 -21 -610 l-5 -518 69 0 c182 0 334 92 413 250 43 86
49 134 54 450 6 378 27 488 131 705 180 373 531 639 939 712 119 21 333 21
452 0 408 -73 759 -339 939 -712 105 -217 125 -326 131 -710 6 -333 12 -370
70 -467 85 -140 245 -228 416 -228 l50 0 -5 518 c-4 421 -8 534 -21 610 -72
402 -237 724 -515 1003 -394 393 -919 581 -1473 528z"/>
<path d="M2394 4219 c-76 -13 -216 -63 -289 -104 -82 -46 -197 -139 -253 -204
-97 -115 -153 -218 -199 -371 -25 -81 -26 -100 -33 -420 -7 -296 -10 -344 -29
-414 -62 -233 -215 -423 -423 -524 -115 -56 -196 -77 -342 -88 l-99 -7 6 -221
c8 -289 35 -456 110 -661 162 -448 508 -827 939 -1030 488 -229 1068 -229
1556 0 192 91 354 206 513 364 236 237 389 501 475 823 40 149 55 274 61 506
5 187 4 222 -8 222 -8 0 -62 5 -122 10 -210 20 -363 93 -512 244 -93 94 -140
163 -181 264 -53 131 -56 157 -64 512 -7 320 -8 339 -33 420 -63 207 -159 354
-314 480 -127 103 -285 175 -436 200 -73 12 -250 11 -323 -1z m339 -368 c196
-68 333 -209 394 -406 17 -56 18 -112 18 -885 0 -773 -1 -829 -18 -885 -62
-200 -203 -343 -407 -411 -76 -25 -244 -25 -320 0 -204 68 -345 211 -407 411
-17 56 -18 112 -18 885 0 922 -4 867 72 1012 78 149 257 275 428 302 60 9 201
-4 258 -23z m-1101 -2128 c31 -373 306 -709 668 -816 107 -32 158 -39 280 -38
244 1 484 104 656 283 157 163 240 337 267 560 l11 98 175 0 174 0 -6 -92
c-31 -549 -435 -1032 -976 -1168 -305 -76 -621 -39 -902 107 -382 197 -637
558 -694 983 -8 58 -15 120 -15 138 l0 32 178 -2 177 -3 7 -82z"/>
<path d="M2465 3501 c-22 -10 -54 -34 -72 -52 -66 -70 -63 -28 -63 -891 0
-741 1 -785 19 -823 67 -144 255 -181 370 -72 18 18 42 50 52 72 18 38 19 81
19 825 0 744 -1 787 -19 825 -23 49 -74 99 -123 119 -50 21 -134 20 -183 -3z"/>
</g>
</svg>
